<svg width="18" height="18" viewBox="0 0 18 18" fill="none" xmlns="http://www.w3.org/2000/svg">
<path d="M12.8277 11.3952C13.818 10.0439 14.2615 8.3685 14.0695 6.70424C13.8776 5.03997 13.0644 3.50955 11.7925 2.41915C10.5206 1.32875 8.88394 0.758789 7.20989 0.823293C5.53584 0.887797 3.94787 1.58201 2.76368 2.76705C1.57949 3.95208 0.886418 5.54055 0.823111 7.21464C0.759805 8.88874 1.33094 10.525 2.42225 11.7961C3.51356 13.0672 5.04456 13.8793 6.70896 14.0701C8.37336 14.2608 10.0484 13.8161 11.399 12.8249H11.398C11.4287 12.8658 11.4614 12.9046 11.4982 12.9425L15.4355 16.8798C15.6273 17.0717 15.8874 17.1796 16.1587 17.1797C16.43 17.1798 16.6902 17.0721 16.8821 16.8803C17.074 16.6886 17.1819 16.4284 17.182 16.1572C17.1821 15.8859 17.0744 15.6257 16.8827 15.4338L12.9453 11.4964C12.9087 11.4594 12.8694 11.4252 12.8277 11.3941V11.3952ZM13.0915 7.46394C13.0915 8.2026 12.9461 8.93402 12.6634 9.61645C12.3807 10.2989 11.9664 10.919 11.4441 11.4413C10.9218 11.9636 10.3017 12.3779 9.61927 12.6606C8.93684 12.9432 8.20541 13.0887 7.46676 13.0887C6.7281 13.0887 5.99667 12.9432 5.31424 12.6606C4.63181 12.3779 4.01174 11.9636 3.48943 11.4413C2.96712 10.919 2.5528 10.2989 2.27013 9.61645C1.98746 8.93402 1.84197 8.2026 1.84197 7.46394C1.84197 5.97216 2.43458 4.54147 3.48943 3.48662C4.54428 2.43176 5.97497 1.83915 7.46676 1.83915C8.95854 1.83915 10.3892 2.43176 11.4441 3.48662C12.4989 4.54147 13.0915 5.97216 13.0915 7.46394Z" fill="#007B4B"/>
<path d="M7.49935 10.8327V7.49935M7.49935 7.49935V4.16602M7.49935 7.49935H10.8327M7.49935 7.49935H4.16602" stroke="#007B4B" stroke-width="0.8" stroke-linecap="round"/>
</svg>
