<svg width="16" height="16" viewBox="0 0 16 16" fill="none" xmlns="http://www.w3.org/2000/svg">
<path d="M7.99399 1.33301C4.31398 1.33301 1.33398 4.31968 1.33398 7.99968C1.33398 11.6797 4.31398 14.6663 7.99399 14.6663C11.6807 14.6663 14.6673 11.6797 14.6673 7.99968C14.6673 4.31968 11.6807 1.33301 7.99399 1.33301ZM8.00065 13.333C5.05398 13.333 2.66732 10.9463 2.66732 7.99968C2.66732 5.05301 5.05398 2.66634 8.00065 2.66634C10.9473 2.66634 13.334 5.05301 13.334 7.99968C13.334 10.9463 10.9473 13.333 8.00065 13.333ZM7.85398 4.66634H7.81399C7.54732 4.66634 7.33399 4.87968 7.33399 5.14634V8.29301C7.33399 8.52634 7.45398 8.74634 7.66065 8.86634L10.4273 10.5263C10.654 10.6597 10.9473 10.593 11.0807 10.3663C11.1141 10.3124 11.1364 10.2522 11.1461 10.1894C11.1559 10.1267 11.1529 10.0626 11.1373 10.001C11.1218 9.9394 11.094 9.88158 11.0556 9.83096C11.0172 9.78034 10.9691 9.73796 10.914 9.70634L8.33399 8.17301V5.14634C8.33399 4.87968 8.12065 4.66634 7.85398 4.66634V4.66634Z" fill="white"/>
</svg>
