<svg width="16" height="16" viewBox="0 0 16 16" fill="none" xmlns="http://www.w3.org/2000/svg">
<path d="M4.74077 2.99619C4.69649 2.93924 4.64061 2.89236 4.57682 2.85866C4.51304 2.82497 4.44282 2.80523 4.37082 2.80076C4.29882 2.79629 4.22669 2.8072 4.15923 2.83274C4.09177 2.85829 4.03052 2.8979 3.97954 2.94894L3.20407 3.72517C2.84183 4.08816 2.70833 4.60189 2.86658 5.05263C3.52336 6.91826 4.59174 8.61209 5.99248 10.0085C7.38888 11.4092 9.0827 12.4776 10.9483 13.1344C11.3991 13.2926 11.9128 13.1591 12.2758 12.7969L13.0513 12.0214C13.1023 11.9704 13.1419 11.9092 13.1675 11.8417C13.193 11.7743 13.2039 11.7021 13.1994 11.6301C13.195 11.5581 13.1752 11.4879 13.1415 11.4241C13.1078 11.3603 13.061 11.3045 13.004 11.2602L11.2738 9.91472C11.213 9.86753 11.1422 9.83478 11.0668 9.81893C10.9915 9.80308 10.9135 9.80455 10.8388 9.82323L9.19638 10.2335C8.97714 10.2883 8.74746 10.2853 8.52968 10.225C8.31191 10.1647 8.11346 10.049 7.95367 9.88922L6.11172 8.04653C5.95181 7.88681 5.83598 7.6884 5.77552 7.47062C5.71506 7.25284 5.71204 7.02312 5.76674 6.80382L6.17772 5.16137C6.1964 5.08667 6.19787 5.0087 6.18202 4.93335C6.16617 4.858 6.13342 4.78723 6.08623 4.72639L4.74077 2.99619ZM3.41331 2.38346C3.54455 2.25218 3.70222 2.15031 3.87585 2.08464C4.04948 2.01896 4.23509 1.99098 4.42036 2.00254C4.60564 2.0141 4.78633 2.06495 4.95045 2.1517C5.11456 2.23845 5.25835 2.35912 5.37225 2.50571L6.71771 4.23515C6.96445 4.55239 7.05145 4.96563 6.95395 5.35562L6.54371 6.99806C6.5225 7.08313 6.52365 7.17224 6.54704 7.25674C6.57043 7.34123 6.61527 7.41825 6.67721 7.4803L8.5199 9.32299C8.58202 9.38505 8.65916 9.42997 8.74381 9.45336C8.82845 9.47676 8.9177 9.47784 9.00288 9.45649L10.6446 9.04625C10.837 8.99813 11.0379 8.99439 11.232 9.03532C11.4261 9.07625 11.6084 9.16077 11.765 9.28249L13.4945 10.6279C14.1162 11.1117 14.1732 12.0304 13.6167 12.5861L12.8413 13.3616C12.2863 13.9166 11.4568 14.1603 10.6836 13.8881C8.70453 13.1918 6.90765 12.0588 5.42625 10.5732C3.94076 9.09201 2.80778 7.2954 2.11135 5.31662C1.83986 4.54414 2.0836 3.71392 2.63858 3.15893L3.41406 2.38346H3.41331Z" fill="white"/>
</svg>
