<svg width="33" height="33" viewBox="0 0 33 33" fill="none" xmlns="http://www.w3.org/2000/svg">
<path d="M16.5 0C7.40215 0 0 7.40152 0 16.5C0 25.5985 7.40215 33 16.5 33C25.5978 33 33 25.5985 33 16.5C33 7.40152 25.5978 0 16.5 0ZM16.5 31.7308C8.10213 31.7308 1.26923 24.8979 1.26923 16.5C1.26923 8.10213 8.10213 1.26923 16.5 1.26923C24.8979 1.26923 31.7308 8.10213 31.7308 16.5C31.7308 24.8979 24.8979 31.7308 16.5 31.7308Z" fill="#939393"/>
<path d="M22.6589 10.3394C22.4107 10.0913 22.0097 10.0913 21.7615 10.3394L16.4987 15.6023L11.2358 10.3394C10.9877 10.0913 10.5866 10.0913 10.3384 10.3394C10.0903 10.5876 10.0903 10.9886 10.3384 11.2368L15.6013 16.4996L10.3384 21.7625C10.0903 22.0106 10.0903 22.4117 10.3384 22.6598C10.4622 22.7836 10.6247 22.8458 10.7871 22.8458C10.9496 22.8458 11.112 22.7836 11.2358 22.6598L16.4987 17.397L21.7615 22.6598C21.8853 22.7836 22.0477 22.8458 22.2102 22.8458C22.3727 22.8458 22.5351 22.7836 22.6589 22.6598C22.907 22.4117 22.907 22.0106 22.6589 21.7625L17.396 16.4996L22.6589 11.2368C22.907 10.9886 22.907 10.5876 22.6589 10.3394Z" fill="#939393"/>
</svg>
