<svg width="15" height="15" viewBox="0 0 15 15" fill="none" xmlns="http://www.w3.org/2000/svg">
<path fill-rule="evenodd" clip-rule="evenodd" d="M12.9887 2.01174C13.0324 2.05528 13.067 2.10701 13.0906 2.16395C13.1143 2.2209 13.1264 2.28195 13.1264 2.34361C13.1264 2.40527 13.1143 2.46632 13.0906 2.52327C13.067 2.58022 13.0324 2.63194 12.9887 2.67549L2.67622 12.988C2.5882 13.076 2.46882 13.1255 2.34434 13.1255C2.21986 13.1255 2.10049 13.076 2.01247 12.988C1.92445 12.9 1.875 12.7806 1.875 12.6561C1.875 12.5316 1.92445 12.4123 2.01247 12.3242L12.325 2.01174C12.3685 1.96808 12.4202 1.93345 12.4772 1.90982C12.5341 1.88619 12.5952 1.87402 12.6568 1.87402C12.7185 1.87402 12.7796 1.88619 12.8365 1.90982C12.8934 1.93345 12.9452 1.96808 12.9887 2.01174Z" fill="#9C9C9C"/>
<path fill-rule="evenodd" clip-rule="evenodd" d="M2.01271 2.01174C1.96906 2.05528 1.93443 2.10701 1.91079 2.16395C1.88716 2.2209 1.875 2.28195 1.875 2.34361C1.875 2.40527 1.88716 2.46632 1.91079 2.52327C1.93443 2.58022 1.96906 2.63194 2.01271 2.67549L12.3252 12.988C12.4132 13.076 12.5326 13.1255 12.6571 13.1255C12.7816 13.1255 12.9009 13.076 12.989 12.988C13.077 12.9 13.1264 12.7806 13.1264 12.6561C13.1264 12.5316 13.077 12.4123 12.989 12.3242L2.67646 2.01174C2.63292 1.96808 2.58119 1.93345 2.52424 1.90982C2.4673 1.88619 2.40624 1.87402 2.34459 1.87402C2.28293 1.87402 2.22188 1.88619 2.16493 1.90982C2.10798 1.93345 2.05626 1.96808 2.01271 2.01174Z" fill="#9C9C9C"/>
</svg>
