<svg width="25" height="26" viewBox="0 0 25 26" fill="none" xmlns="http://www.w3.org/2000/svg">
<path d="M22.2671 16.8707L16.6292 14.8146V13.2499C17.0256 12.6414 17.2926 11.9576 17.4136 11.2413C18.0924 10.8386 18.5694 10.1677 18.7269 9.39446C18.8844 8.62118 18.7081 7.8173 18.2413 7.1811C18.3146 6.80177 18.3521 6.41644 18.3533 6.03017C18.3788 4.45973 17.7806 2.94317 16.6898 1.81269C15.599 0.682451 14.1048 0.0306035 12.5344 0C10.9632 0.0305474 9.46831 0.683128 8.37749 1.81435C7.28642 2.94557 6.68894 4.46312 6.71542 6.03448C6.71662 6.42078 6.75414 6.8061 6.82751 7.18541C6.36063 7.82161 6.18434 8.62549 6.34187 9.39877C6.49942 10.1721 6.97642 10.8429 7.65517 11.2456C7.77616 11.9619 8.04315 12.6454 8.43953 13.2542V14.8059L2.73701 16.875C1.93602 17.1677 1.24427 17.6991 0.754803 18.3974C0.26532 19.0959 0.00190887 19.9274 0 20.7801V25.8964H25V20.7714C24.9974 19.92 24.7342 19.0897 24.2457 18.3923C23.7569 17.695 23.0666 17.1639 22.2671 16.8707H22.2671ZM23.7067 24.6035H1.29291L1.29315 20.7802C1.29435 20.193 1.47547 19.6206 1.81246 19.1395C2.14921 18.6586 2.6252 18.2926 3.17674 18.0905L9.73278 15.7328V12.845L9.61203 12.6769C9.20962 12.1109 8.96142 11.4497 8.89233 10.7587L8.8536 10.375L8.50026 10.2242H8.50002C8.04348 10.0325 7.71061 9.62815 7.60981 9.14346C7.50903 8.65855 7.65334 8.15534 7.99562 7.79746L8.22412 7.54322L8.14235 7.20263C8.04733 6.82043 7.99802 6.42837 7.99562 6.03459C7.96916 4.80405 8.43219 3.61341 9.28343 2.72412C10.1344 1.83508 11.3039 1.32036 12.5345 1.29321C13.7626 1.32376 14.9287 1.83994 15.7771 2.72868C16.6254 3.61741 17.087 4.80614 17.0603 6.03459C17.0579 6.42834 17.0086 6.82043 16.9139 7.20263L16.8448 7.54322L17.0863 7.79746C17.4286 8.15538 17.5727 8.65855 17.4721 9.14346C17.3713 9.62814 17.0384 10.0325 16.5819 10.2242L16.2286 10.375L16.1899 10.7587H16.1896C16.1206 11.4497 15.8723 12.1109 15.4699 12.6769L15.3492 12.845V15.7328L21.8362 18.0992H21.836C22.3866 18.3017 22.8619 18.6683 23.1979 19.1491C23.5339 19.63 23.7145 20.2022 23.7153 20.7889L23.7067 24.6035Z" fill="black"/>
</svg>
