<svg width="38" height="27" viewBox="0 0 38 27" fill="none" xmlns="http://www.w3.org/2000/svg">
<path d="M36.3231 1.43403C36.3167 1.42713 36.3147 1.41802 36.308 1.4113C36.2895 1.39295 36.2653 1.386 36.2455 1.37C35.6223 0.81486 34.8104 0.466797 33.9123 0.466797H4.32488C3.36038 0.466797 2.48647 0.857642 1.84953 1.48757C1.84423 1.49259 1.83705 1.49412 1.83187 1.49931C1.82617 1.50501 1.82452 1.5127 1.81905 1.51851C1.19071 2.15544 0.800781 3.02834 0.800781 3.99158V23.1985C0.800781 24.1618 1.19071 25.0346 1.81905 25.6715C1.82452 25.6773 1.82617 25.685 1.83187 25.6907C1.83705 25.6959 1.84423 25.6974 1.84953 25.7025C2.48647 26.3324 3.36038 26.7233 4.32488 26.7233H33.9123C34.8101 26.7233 35.6218 26.3754 36.2448 25.8206C36.2649 25.8044 36.2894 25.7973 36.308 25.7787C36.3147 25.772 36.3167 25.7629 36.3231 25.756C37.0052 25.1128 37.4371 24.2076 37.4371 23.1985V3.99158C37.4371 2.98248 37.0052 2.07723 36.3231 1.43403ZM25.1834 13.5954L35.7242 3.03375C35.8769 3.3212 35.9716 3.64397 35.9716 3.99158V23.1985C35.9716 23.5461 35.8769 23.8688 35.7242 24.1563L25.1834 13.5954ZM33.9123 1.93225C34.1621 1.93225 34.3986 1.98363 34.6203 2.06544L23.6332 13.0744C23.6324 13.0752 23.6313 13.0755 23.6305 13.0763C23.6297 13.0771 23.6294 13.0782 23.6286 13.079L20.4863 16.2276C20.0964 16.6176 19.5783 16.8322 19.0266 16.8322C19.0259 16.8322 19.0245 16.8315 19.0231 16.8315C18.4742 16.8308 17.9597 16.6168 17.5733 16.2276L3.48315 2.11676C3.7408 2.0005 4.02438 1.93225 4.32488 1.93225H33.9123ZM2.44813 24.0358C2.33328 23.7794 2.26624 23.4972 2.26624 23.1985V3.99158C2.26624 3.69285 2.33328 3.41058 2.44819 3.15412L12.8717 13.5928L2.44813 24.0358ZM4.32488 25.2578C4.02432 25.2578 3.74069 25.1895 3.48298 25.0732L13.9071 14.6297L16.5351 17.2615C17.1963 17.9277 18.0792 18.2955 19.0202 18.2969C19.0223 18.2977 19.0252 18.2977 19.0273 18.2977C19.9697 18.2977 20.8556 17.9306 21.5232 17.263L24.1484 14.6326L34.6203 25.1247C34.3986 25.2065 34.1621 25.2578 33.9123 25.2578H4.32488Z" fill="#007B4B"/>
</svg>
