<svg width="42" height="33" viewBox="0 0 42 33" fill="none" xmlns="http://www.w3.org/2000/svg">
<path d="M39.1324 6.57322C39.1274 6.56785 39.1258 6.56074 39.1206 6.5555C39.1062 6.54121 39.0873 6.53579 39.0719 6.52331C38.5862 6.09063 37.9534 5.81934 37.2533 5.81934H14.1921C13.4403 5.81934 12.7592 6.12397 12.2627 6.61496C12.2586 6.61886 12.253 6.62006 12.249 6.6241C12.2445 6.62854 12.2432 6.63454 12.239 6.63907C11.7492 7.13551 11.4453 7.81587 11.4453 8.56665V23.537C11.4453 24.2878 11.7492 24.9681 12.239 25.4646C12.2432 25.4691 12.2445 25.4751 12.249 25.4796C12.253 25.4836 12.2586 25.4848 12.2627 25.4887C12.7592 25.9797 13.4403 26.2844 14.1921 26.2844H37.2533C37.9531 26.2844 38.5858 26.0132 39.0714 25.5808C39.087 25.5682 39.1061 25.5626 39.1206 25.5482C39.1258 25.5429 39.1274 25.5358 39.1324 25.5304C39.664 25.0291 40.0006 24.3236 40.0006 23.537V8.56665C40.0006 7.78013 39.664 7.07455 39.1324 6.57322ZM30.4498 16.0522L38.6656 7.82009C38.7846 8.04414 38.8584 8.29571 38.8584 8.56665V23.537C38.8584 23.8079 38.7846 24.0595 38.6656 24.2836L30.4498 16.0522ZM37.2533 6.96155C37.448 6.96155 37.6324 7.0016 37.8052 7.06536L29.2415 15.6461C29.2409 15.6467 29.24 15.6469 29.2394 15.6475C29.2388 15.6481 29.2386 15.649 29.2379 15.6497L26.7888 18.1037C26.4848 18.4077 26.081 18.575 25.651 18.575C25.6505 18.575 25.6494 18.5744 25.6483 18.5744C25.2205 18.5739 24.8195 18.4071 24.5183 18.1037L13.536 7.10537C13.7368 7.01474 13.9579 6.96155 14.1921 6.96155H37.2533ZM12.7293 24.1897C12.6398 23.9898 12.5875 23.7699 12.5875 23.537V8.56665C12.5875 8.33381 12.6398 8.1138 12.7293 7.91391L20.8537 16.0501L12.7293 24.1897ZM14.1921 25.1422C13.9578 25.1422 13.7368 25.0889 13.5359 24.9983L21.6607 16.8583L23.709 18.9096C24.2244 19.4289 24.9126 19.7155 25.646 19.7166C25.6477 19.7172 25.6499 19.7172 25.6516 19.7172C26.3861 19.7172 27.0766 19.4311 27.5969 18.9107L29.6431 16.8606L37.8052 25.0383C37.6324 25.1021 37.448 25.1422 37.2533 25.1422H14.1921Z" fill="#007B4B"/>
<line y1="16.6025" x2="9.26405" y2="16.6025" stroke="#007B4B"/>
<line x1="2.13867" y1="19.4531" x2="9.26486" y2="19.4531" stroke="#007B4B"/>
<line x1="4.98828" y1="22.3037" x2="9.264" y2="22.3037" stroke="#007B4B"/>
</svg>
