<svg width="26" height="27" viewBox="0 0 26 27" fill="none" xmlns="http://www.w3.org/2000/svg">
<path d="M25.045 0.466797H1.06948C0.701479 0.466797 0.400391 0.767885 0.400391 1.13588C0.400391 1.50388 0.701479 1.80497 1.06948 1.80497H2.51358V25.9143C2.51358 26.1596 2.6474 26.3883 2.86485 26.5053C3.0823 26.6224 3.34436 26.6113 3.55066 26.4719L6.45561 24.5371L9.3717 26.4775C9.59473 26.628 9.89024 26.628 10.1133 26.4775L13.0182 24.5427L15.9343 26.483C16.1573 26.6336 16.4528 26.6336 16.6759 26.483L19.5808 24.5483L22.4969 26.4886C22.6084 26.5611 22.7367 26.6001 22.8649 26.6001C22.9708 26.6001 23.0824 26.5722 23.1827 26.5221C23.4002 26.405 23.534 26.1764 23.534 25.931L23.5228 1.82169H25.045C25.413 1.82169 25.7141 1.52061 25.7141 1.15261C25.7141 0.784612 25.413 0.466797 25.045 0.466797ZM22.2014 24.6654L19.9544 23.1711C19.7314 23.0205 19.4358 23.0205 19.2128 23.1711L16.3079 25.1114L13.3918 23.1711C13.1688 23.0205 12.8732 23.0205 12.6502 23.1711L9.74527 25.1058L6.82918 23.1711C6.60615 23.0205 6.31064 23.0205 6.08761 23.1711L3.85175 24.6598V1.79939H22.1958L22.2014 24.6654Z" fill="#007B4B"/>
<path d="M6.92885 11.1497H13.9375C14.3055 11.1497 14.6066 10.8486 14.6066 10.4806C14.6066 10.1126 14.3055 9.81152 13.9375 9.81152H6.92885C6.56085 9.81152 6.25977 10.1126 6.25977 10.4806C6.25977 10.8486 6.55528 11.1497 6.92885 11.1497Z" fill="#007B4B"/>
<path d="M6.92885 13.4749H12.1812C12.5492 13.4749 12.8503 13.1738 12.8503 12.8058C12.8503 12.4378 12.5492 12.1367 12.1812 12.1367H6.92885C6.56085 12.1367 6.25977 12.4378 6.25977 12.8058C6.25977 13.1738 6.55528 13.4749 6.92885 13.4749Z" fill="#007B4B"/>
<path d="M17.4406 11.1497H19.1913C19.5593 11.1497 19.8604 10.8486 19.8604 10.4806C19.8604 10.1126 19.5593 9.81152 19.1913 9.81152H17.4406C17.0726 9.81152 16.7715 10.1126 16.7715 10.4806C16.7715 10.8486 17.067 11.1497 17.4406 11.1497Z" fill="#007B4B"/>
<path d="M17.4406 13.4749H19.1913C19.5593 13.4749 19.8604 13.1738 19.8604 12.8058C19.8604 12.4378 19.5593 12.1367 19.1913 12.1367H17.4406C17.0726 12.1367 16.7715 12.4378 16.7715 12.8058C16.7715 13.1738 17.067 13.4749 17.4406 13.4749Z" fill="#007B4B"/>
<path d="M6.92885 5.78055H13.9375C14.3055 5.78055 14.6066 5.47946 14.6066 5.11147C14.6066 4.74347 14.3055 4.44238 13.9375 4.44238H6.92885C6.56085 4.44238 6.25977 4.74347 6.25977 5.11147C6.25977 5.47946 6.55528 5.78055 6.92885 5.78055Z" fill="#007B4B"/>
<path d="M6.92885 8.09989H12.1812C12.5492 8.09989 12.8503 7.7988 12.8503 7.4308C12.8503 7.06281 12.5492 6.76172 12.1812 6.76172H6.92885C6.56085 6.76172 6.25977 7.06281 6.25977 7.4308C6.25977 7.7988 6.55528 8.09989 6.92885 8.09989Z" fill="#007B4B"/>
<path d="M17.4406 5.78055H19.1913C19.5593 5.78055 19.8604 5.47946 19.8604 5.11147C19.8604 4.74347 19.5593 4.44238 19.1913 4.44238H17.4406C17.0726 4.44238 16.7715 4.74347 16.7715 5.11147C16.7715 5.47946 17.067 5.78055 17.4406 5.78055Z" fill="#007B4B"/>
<path d="M17.4406 8.09989H19.1913C19.5593 8.09989 19.8604 7.7988 19.8604 7.4308C19.8604 7.06281 19.5593 6.76172 19.1913 6.76172H17.4406C17.0726 6.76172 16.7715 7.06281 16.7715 7.4308C16.7715 7.7988 17.067 8.09989 17.4406 8.09989Z" fill="#007B4B"/>
<path d="M6.92885 16.5862H13.9375C14.3055 16.5862 14.6066 16.2851 14.6066 15.9171C14.6066 15.5491 14.3055 15.248 13.9375 15.248H6.92885C6.56085 15.248 6.25977 15.5491 6.25977 15.9171C6.25977 16.2851 6.55528 16.5862 6.92885 16.5862Z" fill="#007B4B"/>
<path d="M6.92885 18.9056H12.1812C12.5492 18.9056 12.8503 18.6045 12.8503 18.2365C12.8503 17.8685 12.5492 17.5674 12.1812 17.5674H6.92885C6.56085 17.5674 6.25977 17.8685 6.25977 18.2365C6.25977 18.6045 6.55528 18.9056 6.92885 18.9056Z" fill="#007B4B"/>
<path d="M17.4406 16.5862H19.1913C19.5593 16.5862 19.8604 16.2851 19.8604 15.9171C19.8604 15.5491 19.5593 15.248 19.1913 15.248H17.4406C17.0726 15.248 16.7715 15.5491 16.7715 15.9171C16.7715 16.2851 17.067 16.5862 17.4406 16.5862Z" fill="#007B4B"/>
<path d="M17.4406 18.9056H19.1913C19.5593 18.9056 19.8604 18.6045 19.8604 18.2365C19.8604 17.8685 19.5593 17.5674 19.1913 17.5674H17.4406C17.0726 17.5674 16.7715 17.8685 16.7715 18.2365C16.7715 18.6045 17.067 18.9056 17.4406 18.9056Z" fill="#007B4B"/>
</svg>
