<svg width="26" height="27" viewBox="0 0 26 27" fill="none" xmlns="http://www.w3.org/2000/svg">
<path d="M8.97742 11.024C8.90155 11.024 8.80023 11.024 8.64844 11.0507V12.8755H8.95202C9.2556 12.8755 9.45808 12.7682 9.58464 12.5536C9.6858 12.3925 9.73643 12.1778 9.73643 11.9094C9.73643 11.2922 9.48348 11.0239 8.97742 11.0239V11.024Z" fill="#007B4B"/>
<path d="M6.6517 11.0239H6.44922V11.7754C6.47451 11.7754 6.57578 11.8021 6.62647 11.8021C7.13253 11.8021 7.18317 11.5874 7.18317 11.3996C7.183 11.2922 7.183 11.024 6.6517 11.024V11.0239Z" fill="#007B4B"/>
<path d="M13.7382 10.3264C13.7382 9.76274 13.3081 9.3335 12.8019 9.3335H5.46357C4.93209 9.3335 4.52734 9.78968 4.52734 10.3264V13.6005C4.52734 14.1642 4.9575 14.5934 5.46357 14.5934H12.8019C13.3335 14.5934 13.7382 14.1372 13.7382 13.6005V10.3264ZM7.43733 12.1245C7.20962 12.3124 6.93127 12.3929 6.577 12.3929H6.45044V13.5201H5.84305V10.5144L5.96961 10.4876C6.22272 10.4338 6.47567 10.4071 6.67815 10.4071C7.03242 10.4071 7.31077 10.4876 7.48802 10.6486C7.69045 10.8366 7.81701 11.0511 7.81701 11.3463C7.7916 11.6952 7.69028 11.9367 7.43733 12.1245ZM10.0437 12.9565C9.79057 13.2785 9.41106 13.4665 8.90505 13.4665C8.75321 13.4665 8.52555 13.4397 8.19651 13.4127L8.12059 13.386L8.12042 10.5144L8.19634 10.4876C8.60125 10.4338 8.85419 10.4071 9.00615 10.4071C9.48698 10.4071 9.8412 10.5681 10.069 10.8633C10.2714 11.1048 10.3473 11.4537 10.3473 11.8562C10.3473 12.3391 10.2462 12.6881 10.0437 12.9565H10.0437ZM12.4224 11.051H11.2078V11.6147H12.3213V12.2588H11.2078V13.5201H10.5752L10.575 10.4874H12.4222L12.4224 11.051Z" fill="#007B4B"/>
<path d="M14.2454 3.02677V3L20.3691 9.52128L20.369 21.5173C20.369 22.081 19.9642 22.5371 19.4328 22.5371H11.2932L10.4677 21.6L18.9773 21.7321C19.3316 21.7321 19.61 21.4368 19.61 21.0611V9.54816H15.1817C14.6755 9.54816 14.2454 9.06498 14.2454 8.52828V3.83187H7.94455C7.59027 3.83187 7.31192 4.12709 7.31192 4.50279L7.3117 8.82348H6.52734V3.99289C6.52734 3.4562 6.95748 3.02677 7.48895 3.02677H14.2454Z" fill="#007B4B"/>
<path d="M10.7784 21.7585H7.94432C7.5901 21.7585 7.3117 21.4633 7.3117 21.0876V15.0493H6.52734V21.5438C6.52734 22.1075 6.95748 22.5637 7.48895 22.5637H13.3985L10.8291 21.839C10.8291 21.8121 10.8038 21.7853 10.7784 21.7585Z" fill="#007B4B"/>
<mask id="path-6-inside-1_2492_16098" fill="white">
<path d="M18.3853 21.1602H10.4648V21.7602H18.3853V21.1602Z"/>
</mask>
<path d="M18.3853 21.1602H10.4648V21.7602H18.3853V21.1602Z" fill="white"/>
<path d="M10.4648 21.1602V20.1602H9.46484V21.1602H10.4648ZM18.3853 21.1602H19.3853V20.1602H18.3853V21.1602ZM18.3853 21.7602V22.7602H19.3853V21.7602H18.3853ZM10.4648 21.7602H9.46484V22.7602H10.4648V21.7602ZM10.4648 22.1602H18.3853V20.1602H10.4648V22.1602ZM17.3853 21.1602V21.7602H19.3853V21.1602H17.3853ZM18.3853 20.7602H10.4648V22.7602H18.3853V20.7602ZM11.4648 21.7602V21.1602H9.46484V21.7602H11.4648Z" fill="white" mask="url(#path-6-inside-1_2492_16098)"/>
<path d="M18.4279 21.5665C18.3618 21.4262 18.2384 21.318 18.0874 21.2773L18.0707 21.2596H17.9536H17.2243L17.2242 17.8563C17.2242 17.4731 16.942 17.1001 16.5364 17.1001H15.2711C14.8872 17.1001 14.5581 17.4491 14.5581 17.8563V21.2598H13.8289C13.6167 21.2598 13.4426 21.3874 13.3556 21.5577C13.2679 21.7295 13.262 21.9623 13.4046 22.1486L15.4513 24.9891L15.4513 24.9891L15.4551 24.9942C15.6696 25.2789 16.0873 25.2785 16.3018 24.9944L16.3019 24.9945L16.3057 24.9891L18.3459 22.1576C18.4983 21.9827 18.5145 21.7503 18.4279 21.5665Z" fill="#007B4B" stroke="white"/>
</svg>
