<svg width="27" height="27" viewBox="0 0 27 27" fill="none" xmlns="http://www.w3.org/2000/svg">
<path d="M9.52273 11.024C9.44227 11.024 9.33481 11.024 9.17383 11.0507V12.8755H9.49579C9.81775 12.8755 10.0325 12.7682 10.1667 12.5536C10.274 12.3925 10.3277 12.1778 10.3277 11.9094C10.3277 11.2922 10.0594 11.0239 9.52273 11.0239V11.024Z" fill="#007B4B"/>
<path d="M7.05458 11.0239H6.83984V11.7754C6.86666 11.7754 6.97406 11.8021 7.02782 11.8021C7.56452 11.8021 7.61822 11.5874 7.61822 11.3996C7.61804 11.2922 7.61804 11.024 7.05458 11.024V11.0239Z" fill="#007B4B"/>
<path d="M14.5693 10.3264C14.5693 9.76274 14.1131 9.3335 13.5763 9.3335H5.79369C5.23003 9.3335 4.80078 9.78968 4.80078 10.3264V13.6005C4.80078 14.1642 5.25698 14.5934 5.79369 14.5934H13.5763C14.14 14.5934 14.5693 14.1372 14.5693 13.6005V10.3264ZM7.88694 12.1245C7.64544 12.3124 7.35024 12.3929 6.97452 12.3929H6.8403V13.5201H6.19614V10.5144L6.33036 10.4876C6.5988 10.4338 6.86706 10.4071 7.0818 10.4071C7.45752 10.4071 7.75272 10.4876 7.9407 10.6486C8.15538 10.8366 8.2896 11.0511 8.2896 11.3463C8.26266 11.6952 8.1552 11.9367 7.88694 12.1245ZM10.6511 12.9565C10.3826 13.2785 9.98016 13.4665 9.44352 13.4665C9.28248 13.4665 9.04104 13.4397 8.69208 13.4127L8.61156 13.386L8.61138 10.5144L8.6919 10.4876C9.12132 10.4338 9.38958 10.4071 9.55074 10.4071C10.0607 10.4071 10.4363 10.5681 10.6779 10.8633C10.8926 11.1048 10.9731 11.4537 10.9731 11.8562C10.9731 12.3391 10.8658 12.6881 10.6511 12.9565H10.6511ZM13.1738 11.051H11.8857V11.6147H13.0666V12.2588H11.8857V13.5201H11.2148L11.2146 10.4874H13.1736L13.1738 11.051Z" fill="#007B4B"/>
<path d="M15.1071 3.02677V3L21.6017 9.52128L21.6015 21.5173C21.6015 22.081 21.1722 22.5371 20.6086 22.5371H11.9763L11.1008 21.6L20.1256 21.7321C20.5013 21.7321 20.7965 21.4368 20.7965 21.0611V9.54816H16.1001C15.5634 9.54816 15.1072 9.06498 15.1072 8.52828V3.83187H8.42488C8.04916 3.83187 7.75396 4.12709 7.75396 4.50279L7.75372 8.82348H6.92188V3.99289C6.92188 3.4562 7.37806 3.02677 7.9417 3.02677H15.1071Z" fill="#007B4B"/>
<path d="M11.4303 21.7585H8.42463C8.04897 21.7585 7.75372 21.4633 7.75372 21.0876V15.0493H6.92188V21.5438C6.92188 22.1075 7.37806 22.5637 7.9417 22.5637H14.209L11.484 21.839C11.484 21.8121 11.4573 21.7853 11.4303 21.7585Z" fill="#007B4B"/>
<mask id="path-6-inside-1_1587_1851" fill="white">
<path d="M19.4996 21.1602H11.0996V21.7602H19.4996V21.1602Z"/>
</mask>
<path d="M19.4996 21.1602H11.0996V21.7602H19.4996V21.1602Z" fill="white"/>
<path d="M11.0996 21.1602V20.1602H10.0996V21.1602H11.0996ZM19.4996 21.1602H20.4996V20.1602H19.4996V21.1602ZM19.4996 21.7602V22.7602H20.4996V21.7602H19.4996ZM11.0996 21.7602H10.0996V22.7602H11.0996V21.7602ZM11.0996 22.1602H19.4996V20.1602H11.0996V22.1602ZM18.4996 21.1602V21.7602H20.4996V21.1602H18.4996ZM19.4996 20.7602H11.0996V22.7602H19.4996V20.7602ZM12.0996 21.7602V21.1602H10.0996V21.7602H12.0996Z" fill="white" mask="url(#path-6-inside-1_1587_1851)"/>
<path d="M19.5454 21.5665C19.4753 21.4262 19.3445 21.318 19.1843 21.2773L19.1666 21.2596H19.0424H18.269L18.2688 17.8563C18.2688 17.4731 17.9695 17.1001 17.5394 17.1001H16.1975C15.7904 17.1001 15.4413 17.4491 15.4413 17.8563V21.2598H14.6679C14.4429 21.2598 14.2583 21.3874 14.166 21.5577C14.073 21.7295 14.0668 21.9623 14.218 22.1486L16.3886 24.9891L16.3886 24.9891L16.3926 24.9942C16.6201 25.2789 17.0631 25.2785 17.2906 24.9944L17.2907 24.9945L17.2947 24.9891L19.4585 22.1576C19.6201 21.9827 19.6373 21.7503 19.5454 21.5665Z" fill="#007B4B" stroke="white"/>
</svg>
